Coordinates
version=1
nRows=29
nColumns=24
inDegrees=yes

Units are S.I. units (second, meters, Newtons, ...)
Angles are in degrees.

endheader
time	pelvis_tilt	pelvis_list	pelvis_rotation	pelvis_tx	pelvis_ty	pelvis_tz	hip_flexion_r	hip_adduction_r	hip_rotation_r	knee_angle_r	ankle_angle_r	subtalar_angle_r	mtp_angle_r	hip_flexion_l	hip_adduction_l	hip_rotation_l	knee_angle_l	ankle_angle_l	subtalar_angle_l	mtp_angle_l	lumbar_extension	lumbar_bending	lumbar_rotation
      2.39000000	     28.95086606	     -2.27589387	      1.12273907	      0.84536539	      0.90188078	      0.00266670	    -38.96587895	      2.96791323	     -0.85156851	    -35.69170346	     -5.70193093	     11.77826094	     53.70882415	    -15.37493935	      0.59640664	     22.91248620	     -7.86599662	    -11.50194575	    -37.48789833	     18.47810126	    -39.52697036	     -2.75124394	      2.39995334
      2.39500000	     28.85118365	     -2.12384534	      1.20834635	      0.85155824	      0.90264488	      0.00176263	    -38.08787545	      2.52070389	     -1.93588550	    -37.44948296	     -7.21725926	     12.08980745	     53.73203187	    -15.79993393	      0.75689687	     23.07933979	     -7.65509873	    -11.33075738	    -37.61267196	     18.43922936	    -39.39371049	     -2.87590227	      2.24252425
      2.40000000	     28.77426371	     -1.97351567	      1.29384574	      0.85753006	      0.90337275	      0.00089518	    -37.23310156	      2.05259736	     -2.99588774	    -39.15864692	     -8.57931432	     12.28725813	     53.45029698	    -16.27851645	      0.90052380	     23.30552491	     -7.33228769	    -11.35693484	    -38.17147174	     18.22510134	    -39.32235487	     -2.98741509	      2.10119805
      2.40500000	     28.66103129	     -1.85342159	      1.33503591	      0.86341989	      0.90403928	      0.00002998	    -36.25328565	      1.57372637	     -3.92792595	    -41.04499715	     -9.47951334	     12.66307229	     48.72147927	    -16.70795513	      1.02938431	     23.46260034	     -7.04548550	    -11.22636563	    -38.44883803	     16.81119030	    -39.20116074	     -3.08918249	      2.05341035
      2.41000000	     28.50221136	     -1.76702997	      1.42626050	      0.86918442	      0.90455861	     -0.00087423	    -35.24796269	      1.17221908	     -4.75537988	    -42.78802238	    -10.43030309	     12.33229690	     48.20749833	    -17.06406080	      1.10614142	     23.64608004	     -6.77132127	    -10.91990608	    -38.45415883	     16.76839301	    -39.04407133	     -3.12529076	      1.92474675
      2.41500000	     28.45726198	     -1.69170477	      1.50072798	      0.87474026	      0.90520409	     -0.00183675	    -34.35085056	      0.79888796	     -5.39270748	    -44.50201833	    -10.82523145	     12.14164723	     41.96466946	    -17.53826673	      1.18415777	     23.71997696	     -6.50213897	    -10.74697231	    -38.56171164	     16.65310011	    -39.01868659	     -3.14085154	      1.84107806
      2.42000000	     28.38551570	     -1.59038841	      1.57007939	      0.88015276	      0.90583692	     -0.00287033	    -33.43007850	      0.39656450	     -6.04741521	    -46.13544043	    -10.99085881	     10.97490512	     41.68430588	    -17.93796400	      1.30187739	     23.78332689	     -6.31898415	    -10.49487789	    -38.62492371	     16.66230136	    -38.97961977	     -3.17508645	      1.76378821
      2.42500000	     28.38281512	     -1.54163340	      1.61979360	      0.88540342	      0.90656236	     -0.00404645	    -32.57967511	      0.04761583	     -6.57425238	    -47.65704523	    -11.08222130	      9.25531536	     41.23231418	    -18.41343961	      1.38012089	     23.79950711	     -6.11743697	    -10.34560944	    -38.74247408	     16.65953377	    -39.01243805	     -3.14740133	      1.72516371
      2.43000000	     28.39749512	     -1.56000064	      1.67640179	      0.89059737	      0.90727789	     -0.00526838	    -31.75693604	     -0.20900084	     -6.99791552	    -49.07361190	    -10.73160152	      7.72508336	     37.79837349	    -18.92676980	      1.38842716	     23.80347320	     -5.86049361	    -10.38515681	    -39.20032882	     16.35794612	    -39.07325357	     -3.04971915	      1.69654248
      2.43500000	     28.34432475	     -1.58750242	      1.80714262	      0.89563567	      0.90788509	     -0.00652593	    -30.85449389	     -0.39082285	     -7.41498839	    -50.37246914	    -10.42547142	      6.04035644	     37.54041785	    -19.31796070	      1.35797091	     23.81889485	     -5.67513535	    -10.12431404	    -39.05336830	     16.38752793	    -39.07889225	     -2.89976824	      1.59768879
      2.44000000	     28.35232111	     -1.63300423	      1.91015675	      0.90053455	      0.90855707	     -0.00765571	    -29.98595519	     -0.57379276	     -7.79100858	    -51.59597100	     -9.85940148	      4.44754120	     37.22047496	    -19.77822134	      1.30279461	     23.76533621	     -5.46521797	     -9.85463713	    -38.90579467	     16.40039799	    -39.15419724	     -2.74910595	      1.50655041
      2.44500000	     28.39809202	     -1.74535419	      1.99187057	      0.90537954	      0.90940420	     -0.00869800	    -29.18789505	     -0.66007005	     -8.11848412	    -52.63035110	     -9.29248385	      2.26102737	     36.66474813	    -20.31876882	      1.15984010	     23.72441274	     -5.16904797	     -9.75415264	    -38.73531947	     16.32812503	    -39.28149141	     -2.54597701	      1.46957273
      2.45000000	     28.53786434	     -1.88194453	      2.14776151	      0.91037748	      0.91028054	     -0.00992267	    -28.56980891	     -0.64580021	     -8.38458190	    -53.43979349	     -8.58372424	      0.36141304	     35.77461445	    -20.99125230	      0.95883316	     23.70391320	     -4.83009028	     -9.39720785	    -38.48671902	     16.24388628	    -39.48221418	     -2.27189322	      1.49793115
      2.45500000	     28.55095627	     -1.94756132	      2.22564005	      0.91532386	      0.91095962	     -0.01115367	    -27.78577411	     -0.79368075	     -8.64316079	    -54.20756804	     -7.94491067	     -1.36428350	     35.19582654	    -21.48410523	      0.88779340	     23.60591583	     -4.57495203	     -9.12134937	    -38.32439951	     16.22839474	    -39.55792287	     -2.08917662	      1.46325218
      2.46000000	     28.55865921	     -2.02304154	      2.37655759	      0.92056640	      0.91168371	     -0.01227539	    -27.07154533	     -0.86260088	     -8.94873709	    -54.83066535	     -6.75051255	     -2.42424626	     30.45636012	    -21.98365185	      0.74451200	     23.29561627	     -4.34319626	     -8.42570508	    -37.27519305	     15.55993369	    -39.63112767	     -1.87382057	      1.42129883
      2.46500000	     28.53341148	     -2.15119670	      2.49063540	      0.92576448	      0.91236969	     -0.01324598	    -26.30457521	     -0.85860188	     -9.15295658	    -55.35957142	     -5.90907573	     -3.87136661	     30.20344973	    -22.49624219	      0.53528951	     23.08034619	     -3.95220159	     -8.17654613	    -36.86271385	     15.53592085	    -39.66257714	     -1.63696459	      1.37437441
      2.47000000	     28.61694142	     -2.28361153	      2.62726619	      0.93062504	      0.91313687	     -0.01427642	    -25.62749648	     -0.80813803	     -9.29313580	    -55.82667104	     -4.72659603	     -4.38759229	     28.43575404	    -23.03582676	      0.32586441	     22.71434991	     -3.73205498	     -7.42770947	    -35.46605749	     14.69967915	    -39.83498278	     -1.38569207	      1.32897007
      2.47500000	     28.60301708	     -2.45973945	      2.76830085	      0.93529602	      0.91380402	     -0.01541232	    -24.83349162	     -0.71778535	     -9.41405857	    -56.18146913	     -3.53044406	     -4.77636265	     28.40300575	    -23.53426494	      0.07713749	     22.79923762	     -3.31958236	     -7.34063692	    -35.39820649	     14.67275239	    -39.93097140	     -1.07636492	      1.32784225
      2.48000000	     28.52468026	     -2.55933772	      2.79973630	      0.94003603	      0.91433431	     -0.01635351	    -23.94440312	     -0.74333697	     -9.44525488	    -56.58035614	     -1.89062682	     -4.58093944	     25.03085207	    -23.88982546	     -0.04040378	     22.51582301	     -3.09773172	     -6.78328693	    -34.59617381	     13.72087445	    -39.95045895	     -0.90249881	      1.30851514
      2.48500000	     28.44361802	     -2.75120416	      2.95658059	      0.94470406	      0.91487488	     -0.01736803	    -23.08395273	     -0.56544192	     -9.48146949	    -56.78328761	     -0.84730893	     -4.91252311	     25.05030081	    -24.26151195	     -0.31519918	     22.61530870	     -2.76633724	     -6.68876223	    -34.58392520	     13.69801120	    -39.96783964	     -0.58203927	      1.29246944
      2.49000000	     28.37743305	     -2.87104276	      3.08885414	      0.94927607	      0.91530099	     -0.01826839	    -22.24617743	     -0.44981638	     -9.48718977	    -56.94871322	      0.43308560	     -5.34866599	     25.07000425	    -24.63465651	     -0.50368367	     22.69396314	     -2.46931594	     -6.60373122	    -34.50010442	     13.67942704	    -40.02102951	     -0.35041785	      1.24862026
      2.49500000	     28.25519281	     -2.95811107	      3.16074657	      0.95382429	      0.91562718	     -0.01913200	    -21.33974035	     -0.39633995	     -9.48771087	    -57.08675170	      1.84560547	     -5.70652043	     25.01044941	    -24.88598066	     -0.60066504	     22.62969842	     -2.33054062	     -6.38274647	    -34.35638757	     13.65415885	    -40.01051881	     -0.17496814	      1.21970096
      2.50000000	     28.17526221	     -3.11171977	      3.31784424	      0.95846820	      0.91608786	     -0.02006636	    -20.52540195	     -0.17568962	     -9.44742336	    -56.99329804	      2.98374489	     -6.00848601	     25.00203948	    -25.25361892	     -0.83930725	     22.70879383	     -2.04002810	     -6.23979179	    -34.19026607	     13.65484630	    -40.03320818	      0.11321773	      1.12376755
      2.50500000	     28.06674543	     -3.26930543	      3.36215681	      0.96313122	      0.91651273	     -0.02090389	    -19.64165134	      0.02606618	     -9.25365419	    -56.96121702	      4.12789311	     -5.78246039	     22.42397854	    -25.51505963	     -1.00177783	     22.32806123	     -1.96419725	     -5.36559498	    -32.98849876	     13.20068611	    -40.02496319	      0.35323119	      1.14988128
      2.51000000	     27.95121518	     -3.31256998	      3.48515765	      0.96776885	      0.91673292	     -0.02180291	    -18.80065966	      0.09742945	     -9.23517309	    -56.79386085	      5.19387362	     -5.34801347	     22.37038840	    -25.80537307	     -1.09042460	     22.47565558	     -1.75942292	     -5.25926348	    -33.11838393	     13.10456784	    -40.01381178	      0.52410409	      0.99911207
      2.51500000	     27.87733005	     -3.42456550	      3.65279708	      0.97253158	      0.91703055	     -0.02250291	    -18.05513334	      0.35181623	     -9.12197133	    -56.45608262	      6.18538930	     -5.44906899	     22.40590485	    -26.15187185	     -1.29348033	     22.46334652	     -1.52510890	     -5.09584064	    -33.05373241	     13.10348437	    -40.02940458	      0.74498421	      0.90548302
      2.52000000	     27.71438326	     -3.45662885	      3.67067996	      0.97730003	      0.91714155	     -0.02303937	    -17.16176807	      0.43294320	     -8.92595856	    -56.16876849	      7.23322001	     -5.12954641	     22.31675480	    -26.37004008	     -1.32726354	     22.27245431	     -1.41495615	     -4.67104178	    -32.71371164	     13.10929105	    -39.94785649	      0.81673842	      0.82651316
      2.52500000	     27.63975666	     -3.49685721	      3.78455512	      0.98207420	      0.91733166	     -0.02370137	    -16.41231755	      0.59718851	     -8.79319257	    -55.75760143	      8.18054074	     -4.90909811	     22.05545186	    -26.70143199	     -1.42300387	     22.24597561	     -1.25454261	     -4.29600247	    -32.40416522	     13.06553795	    -39.96066747	      0.96019381	      0.65191336
      2.53000000	     27.58150434	     -3.57581499	      3.87366760	      0.98670197	      0.91759812	     -0.02423684	    -15.71054527	      0.85812000	     -8.56083438	    -55.23142415	      9.00296221	     -5.15849694	     22.04095331	    -27.05251016	     -1.55109328	     22.29962153	     -1.05185983	     -4.27809136	    -32.36071947	     13.02290849	    -40.00339565	      1.12090486	      0.52832653
